<svg xmlns="http://www.w3.org/2000/svg" width="700" height="700" viewBox="0 0 700 700">
<path d="M0 0v700h700V0H0zm539.5 517.8c-16.7 44.4-56.4 77.6-101 92-38.9 13.7-80.7 13.8-121.3 10.9-27.1-3.8-54.3-8.8-79.7-19.5-26.4-11.1-53.1-22.2-76.5-39l40-104c42 33.3 92.4 60.7 147.2 61.5 24.2 1 50.9-.9 70.5-16.9 15.6-12.4 18.7-35.5 11.6-53.3-8.5-16.6-27-24.1-43.4-30.6-55.3-20.3-115.2-28.7-167.3-57.4-33.1-18.1-58.7-50.3-65.1-88-5.7-33.1-4.5-68.6 9.9-99.5 23.7-53.8 79.7-87.4 136.7-94.6 46.8-4 95-1.3 139.6 14.6 23.1 8.5 46.2 17.9 66.7 31.7l-39.1 99.9c-8.6-1.6-15.3-7.6-22.9-11.6-32.6-18.5-68.6-33.9-106.7-34.2-21.7-.5-46.2 2.8-61.5 19.8-11.6 11.6-12.2 29.9-7.8 44.8 5 16.6 22.3 24 36.8 30.4 59.5 23.1 125.6 29.9 180.2 64.8 27.2 18.7 52.5 44.7 58.6 78.4 5.2 33.1 6.1 68-5.5 99.8z"/></svg>